<?xml version="1.0" standalone="no"?>
<!DOCTYPE svg PUBLIC "-//W3C//DTD SVG 20010904//EN"
 "http://www.w3.org/TR/2001/REC-SVG-20010904/DTD/svg10.dtd">
<svg version="1.0" xmlns="http://www.w3.org/2000/svg"
 width="32.000000pt" height="32.000000pt" viewBox="0 0 32.000000 32.000000"
 preserveAspectRatio="xMidYMid meet">
<metadata>
Created by potrace 1.12, written by Peter Selinger 2001-2015
</metadata>
<g transform="translate(0.000000,32.000000) scale(0.100000,-0.100000)"
fill="#000000" stroke="none">
<path d="M112 313 c-13 -2 -41 -22 -61 -42 -66 -66 -66 -156 0 -222 125 -125
328 18 253 178 -32 66 -114 103 -192 86z m76 -12 c10 -6 5 -14 -22 -30 -21
-13 -36 -31 -36 -42 0 -16 7 -19 43 -19 54 0 67 -13 67 -66 0 -54 -19 -74 -72
-74 -61 0 -78 20 -78 92 l0 59 -35 -27 -35 -26 0 25 c0 65 118 140 168 108z"/>
</g>
</svg>
